<?xml version="1.0" encoding="UTF-8"?>
<svg width="30px" height="28px" viewBox="0 0 30 28" version="1.1" xmlns="http://www.w3.org/2000/svg" xmlns:xlink="http://www.w3.org/1999/xlink">
    <!-- Generator: Sketch 49.1 (51147) - http://www.bohemiancoding.com/sketch -->
    <title>bed</title>
    <desc>Created with Sketch.</desc>
    <defs></defs>
    <g id="Page-1" stroke="none" stroke-width="1" fill="none" fill-rule="evenodd">
        <g id="1.2-Madrid-" transform="translate(-133.000000, -889.000000)">
            <g id="bed" transform="translate(133.000000, 889.000000)">
                <path d="M5.13486291,8.2642303 C5.09652286,8.2642303 5.06201682,8.2757267 5.03901279,8.29871951 L6.15470816,5.95345359 C6.1853802,5.88830732 6.25439228,5.84615385 6.32723837,5.84615385 L23.5189155,5.84615385 C23.5917616,5.84615385 23.6607736,5.88830732 23.6914457,5.95345359 L24.791805,8.2642303 L5.13486291,8.2642303 Z M29.5191328,18.189457 L24.9298292,8.55930461 C24.9106592,8.56696888 24.8914892,8.57080101 24.8684851,8.57080101 L5.13486291,8.57080101 C5.05051481,8.57080101 4.98150272,8.5018226 4.98150272,8.41751566 L0.327021009,18.189457 C0.265676933,18.3159174 0.357693046,18.4615385 0.49955122,18.4615385 L29.3466026,18.4615385 C29.4884608,18.4615385 29.5804769,18.3159174 29.5191328,18.189457 Z" id="Shape" fill="#4A4A4A" fill-rule="nonzero"></path>
                <g id="Group" transform="translate(5.076923, 8.307692)"></g>
                <path d="M29.945697,18.08193 L24.2445982,6.14348989 C24.2445982,6.09752862 24.2445982,6.0822082 24.2445982,6.05156735 L24.2445982,0 L5.93419115,0 L5.93419115,5.77579972 C5.93419115,5.77579972 5.90728104,5.8294212 5.89574814,5.85240184 L0.0524101768,18.08193 C-0.00141004121,18.1930031 -0.0129429451,18.3155665 0.0139671639,18.4342998 L0.0139671639,24.8305767 L2.10526706,24.8305767 L2.10526706,27.5384615 L4.6079072,27.5384615 L4.6079072,24.8305767 L25.3402241,24.8305767 L25.3402241,27.5384615 L27.8428642,27.5384615 L27.8428642,24.8305767 L29.9956729,24.8305767 L29.9956729,18.334717 C30.0033615,18.2504547 29.98414,18.1623623 29.945697,18.08193 Z M23.552624,0.689419065 L23.552624,5.54982347 L22.353202,5.54982347 L22.353202,3.96415962 C22.353202,3.00280304 21.7073593,2.22146143 20.9154333,2.22146143 L16.9596472,2.22146143 C16.1677212,2.22146143 15.5218786,3.00280304 15.5218786,3.96415962 L15.5218786,5.54982347 L14.5608032,5.54982347 L14.5608032,3.96415962 C14.5608032,3.00280304 13.9149606,2.22146143 13.1230346,2.22146143 L9.17109283,2.22146143 C8.37916677,2.22146143 7.73332415,3.00280304 7.73332415,3.96415962 L7.73332415,5.54982347 L6.62616538,5.54982347 L6.62616538,0.689419065 L23.552624,0.689419065 Z M22.0456578,5.54982347 L15.833267,5.54982347 L15.833267,3.96415962 C15.833267,3.1713277 16.3407147,2.5278699 16.9634915,2.5278699 L20.9192776,2.5278699 C21.5420544,2.5278699 22.0495021,3.1713277 22.0495021,3.96415962 L22.0495021,5.54982347 L22.0456578,5.54982347 Z M14.2571034,5.54982347 L8.04086825,5.54982347 L8.04086825,3.96415962 C8.04086825,3.1713277 8.54831602,2.5278699 9.17109283,2.5278699 L13.1268789,2.5278699 C13.7496557,2.5278699 14.2571034,3.1713277 14.2571034,3.96415962 L14.2571034,5.54982347 Z M6.48008193,6.23924254 L23.5218695,6.23924254 L29.2191241,18.1585321 L0.782827422,18.1585321 L6.48008193,6.23924254 Z M2.58580473,24.1411576 L2.58580473,18.8479512 L27.4161467,18.8479512 L27.4161467,24.1411576 L2.58580473,24.1411576 Z M0.705941396,18.8479512 L2.27826062,18.8479512 L2.27826062,24.1411576 L0.705941396,24.1411576 L0.705941396,18.8479512 Z M3.91977727,26.8490425 L2.8010856,26.8490425 L2.8010856,24.8305767 L3.91977727,24.8305767 L3.91977727,26.8490425 Z M27.1547343,26.8490425 L26.0360426,26.8490425 L26.0360426,24.8305767 L27.1547343,24.8305767 L27.1547343,26.8490425 Z M27.7198466,24.1411576 L27.7198466,18.8479512 L29.3036987,18.8479512 L29.3036987,24.1411576 L27.7198466,24.1411576 Z" id="Shape" fill="#4A4A4A" fill-rule="nonzero"></path>
            </g>
        </g>
    </g>
</svg>