<?xml version="1.0" encoding="UTF-8"?>
<svg width="18px" height="32px" viewBox="0 0 18 32" version="1.1" xmlns="http://www.w3.org/2000/svg" xmlns:xlink="http://www.w3.org/1999/xlink">
    <!-- Generator: Sketch 49.1 (51147) - http://www.bohemiancoding.com/sketch -->
    <title>Group 13</title>
    <desc>Created with Sketch.</desc>
    <defs></defs>
    <g id="Page-1" stroke="none" stroke-width="1" fill="none" fill-rule="evenodd">
        <g id="1.2-Madrid-" transform="translate(-658.000000, -889.000000)" fill="#4A4A4A" fill-rule="nonzero">
            <g id="Group-15" transform="translate(658.000000, 889.000000)">
                <g id="Group-13">
                    <path d="M7.51035097,0.469575111 C7.48460983,0.203174875 7.2627813,5.47650152e-06 6.99764996,3.15796771e-16 L6.97194007,3.15796771e-16 C6.68744238,1.96366962e-06 6.45681247,0.232837197 6.45681247,0.520053333 L6.45681247,6.91525689 C6.50157309,7.1127562 6.42195278,7.31777736 6.25615877,7.43193732 C6.09036476,7.54609727 5.87223372,7.54609727 5.70643971,7.43193732 C5.54064569,7.31777736 5.46102539,7.1127562 5.505786,6.91525689 L5.505786,0.520053333 C5.50504348,0.233361797 5.2746251,0.00134915438 4.99064608,0.00134915438 C4.70666706,0.00134915438 4.47624868,0.233361797 4.47550616,0.520053333 L4.47550616,6.91525689 C4.505022,7.21298322 4.29407452,7.48019273 4.00001405,7.517568 C3.70594508,7.48020325 3.49498569,7.21299054 3.52450082,6.91525689 L3.52450082,0.520053333 C3.5237583,0.233361797 3.29333992,0.00134915438 3.0093609,0.00134915438 C2.72538188,0.00134915438 2.4949635,0.233361797 2.49422097,0.520053333 L2.49422097,6.91525689 C2.52372839,7.21298824 2.31277278,7.48019618 2.01870774,7.517568 C1.72463876,7.48020325 1.51367938,7.21299054 1.54319451,6.91525689 L1.54319451,0.520053333 C1.54319544,0.382126325 1.48892315,0.249848176 1.39231713,0.152319053 C1.2957111,0.0547899302 1.16468494,-9.43003611e-07 1.02806339,0 L1.00237463,0 C0.737235826,-3.84315467e-06 0.515395987,0.203167542 0.489652491,0.469575111 L0.147112221,4.01528889 C-0.210065078,7.71229511 0.0341507089,9.21772089 1.42492197,10.6374684 C2.35475296,11.4861048 2.87694036,12.6983152 2.8577377,13.9636196 C2.80120059,18.8845582 1.40636154,24.2507911 2.25081875,29.989984 C2.47431166,31.5089778 3.09524426,32 4.00001053,32 C4.90477681,32 5.52534665,31.5112853 5.74918471,29.9899947 C6.59363135,24.2508018 5.19879934,18.8845724 5.14226576,13.9636302 C5.1230631,12.6983259 5.6452505,11.4861154 6.57508149,10.6374791 C7.96584923,9.21774578 8.21006501,7.71232356 7.85288771,4.01529956 L7.51035097,0.469575111 Z" id="Shape"></path>
                    <path d="M16.8433144,0.230917967 C16.2786091,0.597538507 14.1708385,2.03017888 13.4183042,5.77503674 C12.2351042,11.6627752 13.8039089,15.5879282 15.1234485,16.8872992 C16.1315337,17.8800106 15.8412007,18.6642988 15.5191962,20.4763632 C14.7775511,24.6497794 13.7104586,29.5552954 15.1901952,31.325934 C15.5084509,31.7176935 15.9748341,31.9615332 16.4794562,32 C17.3192372,32 18,31.4943785 18,29.8481772 L18,0.635604294 C18,0.0910957084 17.5878595,-0.252452825 16.8433144,0.230917967 Z" id="Shape"></path>
                </g>
            </g>
        </g>
    </g>
</svg>