<?xml version="1.0" encoding="UTF-8"?>
<svg width="35px" height="32px" viewBox="0 0 35 32" version="1.1" xmlns="http://www.w3.org/2000/svg" xmlns:xlink="http://www.w3.org/1999/xlink">
    <!-- Generator: Sketch 49.1 (51147) - http://www.bohemiancoding.com/sketch -->
    <title>location</title>
    <desc>Created with Sketch.</desc>
    <defs></defs>
    <g id="Page-1" stroke="none" stroke-width="1" fill="none" fill-rule="evenodd">
        <g id="1.2-Madrid-" transform="translate(-395.000000, -890.000000)" fill="#4A4A4A" fill-rule="nonzero">
            <g id="location" transform="translate(395.000000, 890.000000)">
                <path d="M13.6368301,24.7833523 C13.5649943,24.7833523 13.4971494,24.7793615 13.4293044,24.7753706 C12.7588369,24.7314709 12.2041049,24.4760547 11.8289624,24.0370582 C11.5176739,23.6698974 11.3420753,23.1989738 11.1744584,22.7400228 C10.9469783,22.113455 10.7314709,21.522805 10.1847206,21.295325 C9.79760547,21.1356899 9.34663626,21.2155074 8.84378563,21.3312429 L1.89965792,22.9036488 L1.82782212,22.5923603 L8.77194983,21.0199544 C9.20296465,20.9241733 9.7936146,20.7884835 10.3084379,21 C10.9828962,21.2793615 11.2343216,21.9657925 11.4777651,22.6282782 C11.6334094,23.059293 11.7970353,23.5022805 12.0724059,23.8295325 C12.5672748,24.4122007 13.7246294,24.7554162 15.0855188,24.140821 C15.5963512,23.9093501 16.0792474,23.5900798 16.5461802,23.2827822 C17.0290764,22.963512 17.5239453,22.63626 18.0667047,22.3928164 C20.3295325,21.3791334 22.8557583,21.9857469 25.3021665,22.5763968 C25.4218928,22.604333 25.5376283,22.6322691 25.6533637,22.6602052 C27.9600912,23.2109464 30.8614595,23.6459521 32.8648803,22.0855188 L32.9925884,21.9857469 L33.1881414,22.2371722 L33.0604333,22.3369441 C30.9492588,23.9811859 27.9521095,23.5381984 25.5775371,22.9714937 C25.4618016,22.9435576 25.3420753,22.9156214 25.2223489,22.8876853 C22.831813,22.3129989 20.3574686,21.7143672 18.1944128,22.6841505 C17.6795895,22.9156214 17.1927024,23.2388826 16.7217788,23.550171 C16.2428734,23.8654504 15.7519954,24.1927024 15.2172178,24.4321551 C14.7103763,24.663626 14.1556442,24.7833523 13.6368301,24.7833523 Z" id="Shape"></path>
                <path d="M17.4241733,31.1567845 L0.023945268,22.2491448 L17.4241733,14.4709236 L34.9640821,22.2491448 L17.4241733,31.1567845 Z M1.68415051,22.2930445 L17.4241733,30.3506271 L33.2919042,22.2930445 L17.4241733,15.2571266 L1.68415051,22.2930445 Z" id="Shape"></path>
                <path d="M17.4920182,0.00399087799 C13.3055872,0.00399087799 9.91334094,3.39623717 9.91334094,7.58266819 C9.91334094,13.8443558 17.4920182,22.372862 17.4920182,22.372862 C17.4920182,22.372862 25.0706956,13.6887115 25.0706956,7.58266819 C25.0706956,3.39623717 21.6744584,0.00399087799 17.4920182,0.00399087799 Z M17.4920182,11.4777651 C15.3129989,11.4777651 13.541049,9.70581528 13.541049,7.5267959 C13.541049,5.34777651 15.3129989,3.57582668 17.4920182,3.57582668 C19.6710376,3.57582668 21.4429875,5.34777651 21.4429875,7.5267959 C21.4389966,9.70581528 19.6670468,11.4777651 17.4920182,11.4777651 Z" id="Shape"></path>
            </g>
        </g>
    </g>
</svg>