<?xml version="1.0" encoding="UTF-8"?>
<svg width="30px" height="34px" viewBox="0 0 30 34" version="1.1" xmlns="http://www.w3.org/2000/svg" xmlns:xlink="http://www.w3.org/1999/xlink">
    <!-- Generator: Sketch 49.1 (51147) - http://www.bohemiancoding.com/sketch -->
    <title>Shape</title>
    <desc>Created with Sketch.</desc>
    <defs></defs>
    <g id="Page-1" stroke="none" stroke-width="1" fill="none" fill-rule="evenodd">
        <g id="1.2-Madrid-" transform="translate(-915.000000, -886.000000)" fill="#4A4A4A" fill-rule="nonzero">
            <path d="M942.813333,892.766144 L932.133333,886.573061 C930.826667,885.80898 929.133333,885.80898 927.826667,886.573061 L917.16,892.766144 C915.826667,893.543631 915,894.977959 915,896.519527 L915,908.905693 C915,910.447261 915.826667,911.894995 917.16,912.659076 L927.84,918.852159 C928.493333,919.227497 929.24,919.428571 930,919.428571 C930.76,919.428571 931.506667,919.227497 932.16,918.852159 L942.84,912.659076 C944.173333,911.88159 945,910.447261 945,908.905693 L945,896.519527 C944.973333,894.977959 944.146667,893.543631 942.813333,892.766144 Z M942.466667,908.919098 C942.466667,909.562535 942.12,910.165757 941.56,910.487476 L930.88,916.680559 C930.333333,917.002277 929.626667,917.002277 929.066667,916.680559 L918.4,910.487476 C917.84,910.165757 917.493333,909.562535 917.493333,908.919098 L917.493333,896.532932 C917.493333,895.889495 917.84,895.286273 918.4,894.964554 L929.066667,888.771472 C929.346667,888.610612 929.653333,888.530183 929.973333,888.530183 C930.293333,888.530183 930.6,888.610612 930.88,888.771472 L941.56,894.964554 C942.12,895.286273 942.466667,895.889495 942.466667,896.532932 L942.466667,908.919098 Z M935.426667,896.908271 L923.013333,906.546423 C922.466667,906.975381 922.36,907.766273 922.786667,908.315875 C923.026667,908.637594 923.4,908.798453 923.773333,908.798453 C924.04,908.798453 924.306667,908.718024 924.533333,908.530354 L936.946667,898.892202 C937.493333,898.463244 937.6,897.672352 937.173333,897.12275 C936.76,896.573147 935.973333,896.479313 935.426667,896.908271 Z M927.346667,901.036992 C928.28,901.036992 929.16,900.675059 929.813333,900.004812 C930.466667,899.34797 930.84,898.463244 930.84,897.524898 C930.84,896.586552 930.48,895.701826 929.813333,895.044984 C929.16,894.388142 928.28,894.012803 927.346667,894.012803 C926.413333,894.012803 925.533333,894.374737 924.88,895.044984 C924.226667,895.715231 923.853333,896.586552 923.853333,897.524898 C923.853333,898.463244 924.213333,899.34797 924.88,900.004812 C925.546667,900.675059 926.413333,901.036992 927.346667,901.036992 Z M926.653333,896.827841 C926.84,896.640172 927.08,896.532932 927.346667,896.532932 C927.613333,896.532932 927.853333,896.640172 928.04,896.827841 C928.226667,897.01551 928.333333,897.256799 928.333333,897.524898 C928.333333,897.792997 928.226667,898.034286 928.04,898.221955 C927.666667,898.597293 927.026667,898.597293 926.653333,898.221955 C926.466667,898.034286 926.36,897.792997 926.36,897.524898 C926.36,897.270204 926.466667,897.01551 926.653333,896.827841 Z M932.613333,904.401633 C931.68,904.401633 930.8,904.763566 930.146667,905.433813 C929.493333,906.090655 929.12,906.975381 929.12,907.913727 C929.12,908.852073 929.48,909.736799 930.146667,910.393641 C930.8,911.050483 931.68,911.425822 932.613333,911.425822 C933.546667,911.425822 934.426667,911.063888 935.08,910.393641 C935.733333,909.736799 936.106667,908.852073 936.106667,907.913727 C936.106667,906.975381 935.746667,906.090655 935.08,905.433813 C934.426667,904.763566 933.546667,904.401633 932.613333,904.401633 Z M933.306667,908.610784 C932.933333,908.986122 932.28,908.986122 931.92,908.610784 C931.733333,908.423115 931.626667,908.181826 931.626667,907.913727 C931.626667,907.645628 931.733333,907.404339 931.92,907.21667 C932.106667,907.029001 932.346667,906.921762 932.613333,906.921762 C932.88,906.921762 933.12,907.029001 933.306667,907.21667 C933.493333,907.404339 933.6,907.645628 933.6,907.913727 C933.6,908.181826 933.493333,908.423115 933.306667,908.610784 Z" id="Shape"></path>
        </g>
    </g>
</svg>