<?xml version="1.0" encoding="UTF-8"?>
<svg width="33px" height="32px" viewBox="0 0 33 32" version="1.1" xmlns="http://www.w3.org/2000/svg" xmlns:xlink="http://www.w3.org/1999/xlink">
    <!-- Generator: Sketch 49.1 (51147) - http://www.bohemiancoding.com/sketch -->
    <title>noun_581705_cc</title>
    <desc>Created with Sketch.</desc>
    <defs></defs>
    <g id="Page-1" stroke="none" stroke-width="1" fill="none" fill-rule="evenodd">
        <g id="1.2-Madrid-" transform="translate(-1135.000000, -890.000000)" fill="#4A4A4A" fill-rule="nonzero" stroke="#4A4A4A" stroke-width="1.45">
            <g id="noun_581705_cc" transform="translate(1136.000000, 891.000000)">
                <path d="M0,6.91106591 C0,4.78903767 1.72682435,3.07874626 3.86936568,3.07874626 L17.1083524,3.07874626 C17.3002217,3.07874626 17.4281347,3.20543451 17.4281347,3.39546689 C17.4281347,3.58549927 17.3002217,3.71218752 17.1083524,3.71218752 L3.86936568,3.71218752 C2.07858487,3.71218752 0.639564575,5.13743037 0.639564575,6.91106591 L0.639564575,19.959956 C0.639564575,21.7335915 2.07858487,23.1588343 3.86936568,23.1588343 L6.65147158,23.1588343 C6.84334095,23.1588343 6.97125386,23.2855226 6.97125386,23.475555 L6.97125386,28.9548219 L12.9831609,23.2538505 C13.0471173,23.1905064 13.1110738,23.1588343 13.2070085,23.1588343 L25.4226918,23.1588343 C26.7337992,23.1588343 27.9489719,22.3353607 28.4286453,21.1318223 C28.4926018,20.973462 28.6844712,20.8784458 28.8443623,20.9417899 C29.0042535,21.005134 29.1001881,21.1951664 29.0362317,21.3535267 C28.4606236,22.8104416 27.0216033,23.7922756 25.4226918,23.7922756 L13.3349214,23.7922756 L6.87531918,29.9049838 C6.81136272,29.9683279 6.74740626,30 6.65147158,30 C6.61949335,30 6.55553689,30 6.52355866,29.9683279 C6.39564575,29.9049838 6.33168929,29.8099676 6.33168929,29.6832794 L6.33168929,23.7922756 L3.86936568,23.7922756 C1.72682435,23.7922756 5.68047453e-16,22.0819842 5.68047453e-16,19.959956 L0,6.91106591 Z M30.9549254,9.4131589 L29.8356874,16.4443569 C29.643818,18.0596322 28.4926018,19.0097941 26.6698428,19.0097941 L18.0676992,19.0097941 C17.1083524,19.0097941 16.3088967,18.503041 15.8292232,17.7745836 C15.5414192,18.2179925 15.0617457,18.503041 14.5181158,18.503041 L12.727335,18.503041 C11.8639229,18.503041 11.1604018,17.8062557 11.1604018,16.95111 L11.1604018,8.96975002 C11.1604018,8.11460431 11.8639229,7.41781892 12.727335,7.41781892 L14.5181158,7.41781892 C15.381528,7.41781892 16.0850491,8.11460431 16.0850491,8.96975002 L16.0850491,16.3810128 C16.0850491,17.457863 16.9804395,18.3446807 18.0676992,18.3446807 L26.701821,18.3446807 C27.7251243,18.3446807 29.0362317,17.996288 29.2281011,16.3493407 L30.3473391,9.31814271 C30.4112955,8.96975002 30.3793173,8.62135732 30.2194261,8.33630875 C29.8996439,7.6078513 29.1961228,7.13277035 28.3966671,7.13277035 L23.5359763,7.13277035 C23.344107,7.13277035 23.2161941,7.0060821 23.2161941,6.81604972 L23.2161941,3.17376245 C23.2161941,2.12858436 22.92839,1.40012691 22.3847601,1.02006215 C21.7132173,0.544981199 20.8178269,0.639997389 20.4021099,0.735013579 L20.4021099,3.96556403 C20.4021099,7.32280273 16.500766,8.46299701 16.4368096,8.46299701 C16.2769184,8.52634113 16.0850491,8.39965288 16.0530708,8.24129256 C16.0210926,8.08293225 16.1170273,7.89289987 16.2769184,7.8612278 C16.4048313,7.82955574 19.7625454,6.84772178 19.7625454,3.96556403 L19.7625454,0.481637073 C19.7625454,0.35494882 19.85848,0.228260567 19.986393,0.164916441 C20.0503494,0.133244378 21.6172826,-0.341836571 22.7684989,0.481637073 C23.4720199,0.988390085 23.8557586,1.90687992 23.8557586,3.14209038 L23.8557586,6.46765702 L28.3966671,6.46765702 C29.4519487,6.46765702 30.4112955,7.10109829 30.8270125,8.05126018 C30.9869036,8.49466907 31.0508601,8.93807795 30.9549254,9.4131589 Z M15.4454845,8.96975002 C15.4454845,8.46299701 15.0297675,8.05126018 14.5181158,8.05126018 L12.727335,8.05126018 C12.2156834,8.05126018 11.7999664,8.46299701 11.7999664,8.96975002 L11.7999664,16.9194379 C11.7999664,17.4261909 12.2156834,17.8379277 12.727335,17.8379277 L14.5181158,17.8379277 C15.0297675,17.8379277 15.4454845,17.4261909 15.4454845,16.9194379 L15.4454845,8.96975002 Z" id="Shape"></path>
            </g>
        </g>
    </g>
</svg>