<?xml version="1.0" encoding="utf-8"?>
<!-- Generator: Adobe Illustrator 22.1.0, SVG Export Plug-In . SVG Version: 6.00 Build 0)  -->
<svg version="1.1" id="Layer_1" xmlns="http://www.w3.org/2000/svg" xmlns:xlink="http://www.w3.org/1999/xlink" x="0px" y="0px"
	 viewBox="0 0 30 28" style="enable-background:new 0 0 30 28;" xml:space="preserve">
<style type="text/css">
	.st0{fill:#FFFFFF;}
</style>
<title>bed</title>
<desc>Created with Sketch.</desc>
<g id="Page-1">
	<g id="_x31_.2-Madrid-" transform="translate(-133.000000, -889.000000)">
		<g id="bed" transform="translate(133.000000, 889.000000)">
			<path id="Shape" class="st0" d="M5.1,8.3C5.1,8.3,5.1,8.3,5.1,8.3l1-2.3c0-0.1,0.1-0.1,0.2-0.1h17.2c0.1,0,0.1,0,0.2,0.1l1.1,2.3
				H5.1z M29.5,18.2l-4.6-9.6c0,0,0,0-0.1,0H5.1C5.1,8.6,5,8.5,5,8.4l-4.7,9.8c-0.1,0.1,0,0.3,0.2,0.3h28.8
				C29.5,18.5,29.6,18.3,29.5,18.2z"/>
			<g id="Group" transform="translate(5.076923, 8.307692)">
			</g>
			<path id="Shape_1_" class="st0" d="M29.9,18.1L24.2,6.1c0,0,0-0.1,0-0.1V0H5.9v5.8c0,0,0,0.1,0,0.1L0.1,18.1
				C0,18.2,0,18.3,0,18.4v6.4h2.1v2.7h2.5v-2.7h20.7v2.7h2.5v-2.7H30v-6.5C30,18.3,30,18.2,29.9,18.1z M23.6,0.7v4.9h-1.2V4
				c0-1-0.6-1.7-1.4-1.7h-4c-0.8,0-1.4,0.8-1.4,1.7v1.6h-1V4c0-1-0.6-1.7-1.4-1.7h-4C8.4,2.2,7.7,3,7.7,4v1.6H6.6V0.7H23.6z M22,5.5
				h-6.2V4c0-0.8,0.5-1.4,1.1-1.4h4C21.5,2.5,22,3.2,22,4L22,5.5L22,5.5z M14.3,5.5H8V4c0-0.8,0.5-1.4,1.1-1.4h4
				c0.6,0,1.1,0.6,1.1,1.4V5.5z M6.5,6.2h17l5.7,11.9H0.8L6.5,6.2z M2.6,24.1v-5.3h24.8v5.3H2.6z M0.7,18.8h1.6v5.3H0.7V18.8z
				 M3.9,26.8H2.8v-2h1.1V26.8z M27.2,26.8H26v-2h1.1V26.8z M27.7,24.1v-5.3h1.6v5.3H27.7z"/>
		</g>
	</g>
</g>
</svg>
