<?xml version="1.0" encoding="utf-8"?>
<!-- Generator: Adobe Illustrator 22.1.0, SVG Export Plug-In . SVG Version: 6.00 Build 0)  -->
<svg version="1.1" id="Layer_1" xmlns="http://www.w3.org/2000/svg" xmlns:xlink="http://www.w3.org/1999/xlink" x="0px" y="0px"
	 viewBox="0 0 18 32" style="enable-background:new 0 0 18 32;" xml:space="preserve">
<style type="text/css">
	.st0{fill:#FFFFFF;}
</style>
<title>Group 13</title>
<desc>Created with Sketch.</desc>
<g id="Page-1">
	<g id="_x31_.2-Madrid-" transform="translate(-658.000000, -889.000000)">
		<g id="Group-15" transform="translate(658.000000, 889.000000)">
			<g id="Group-13">
				<path id="Shape" class="st0" d="M7.5,0.5C7.5,0.2,7.3,0,7,0h0C6.7,0,6.5,0.2,6.5,0.5v6.4c0,0.2,0,0.4-0.2,0.5s-0.4,0.1-0.5,0
					C5.5,7.3,5.5,7.1,5.5,6.9V0.5C5.5,0.2,5.3,0,5,0C4.7,0,4.5,0.2,4.5,0.5v6.4c0,0.3-0.2,0.6-0.5,0.6c-0.3,0-0.5-0.3-0.5-0.6V0.5
					C3.5,0.2,3.3,0,3,0S2.5,0.2,2.5,0.5v6.4c0,0.3-0.2,0.6-0.5,0.6c-0.3,0-0.5-0.3-0.5-0.6V0.5c0-0.1-0.1-0.3-0.2-0.4
					C1.3,0.1,1.2,0,1,0h0C0.7,0,0.5,0.2,0.5,0.5L0.1,4C-0.2,7.7,0,9.2,1.4,10.6c0.9,0.8,1.5,2.1,1.4,3.3c-0.1,4.9-1.5,10.3-0.6,16
					c0.2,1.5,0.8,2,1.7,2s1.5-0.5,1.7-2c0.8-5.7-0.6-11.1-0.6-16c0-1.3,0.5-2.5,1.4-3.3C8,9.2,8.2,7.7,7.9,4L7.5,0.5z"/>
				<path id="Shape_1_" class="st0" d="M16.8,0.2c-0.6,0.4-2.7,1.8-3.4,5.5c-1.2,5.9,0.4,9.8,1.7,11.1c1,1,0.7,1.8,0.4,3.6
					c-0.7,4.2-1.8,9.1-0.3,10.8c0.3,0.4,0.8,0.6,1.3,0.7c0.8,0,1.5-0.5,1.5-2.2V0.6C18,0.1,17.6-0.3,16.8,0.2z"/>
			</g>
		</g>
	</g>
</g>
</svg>
