<?xml version="1.0" encoding="utf-8"?>
<!-- Generator: Adobe Illustrator 22.1.0, SVG Export Plug-In . SVG Version: 6.00 Build 0)  -->
<svg version="1.1" id="Layer_1" xmlns="http://www.w3.org/2000/svg" xmlns:xlink="http://www.w3.org/1999/xlink" x="0px" y="0px"
	 viewBox="0 0 35 32" style="enable-background:new 0 0 35 32;" xml:space="preserve">
<style type="text/css">
	.st0{fill:#FFFFFF;}
</style>
<title>location</title>
<desc>Created with Sketch.</desc>
<g id="Page-1">
	<g id="_x31_.2-Madrid-" transform="translate(-395.000000, -890.000000)">
		<g id="location" transform="translate(395.000000, 890.000000)">
			<path id="Shape" class="st0" d="M13.6,24.8c-0.1,0-0.1,0-0.2,0c-0.7,0-1.2-0.3-1.6-0.7c-0.3-0.4-0.5-0.8-0.7-1.3
				c-0.2-0.6-0.4-1.2-1-1.4c-0.4-0.2-0.8-0.1-1.3,0l-6.9,1.6l-0.1-0.3L8.8,21c0.4-0.1,1-0.2,1.5,0c0.7,0.3,0.9,1,1.2,1.6
				c0.2,0.4,0.3,0.9,0.6,1.2c0.5,0.6,1.7,0.9,3,0.3c0.5-0.2,1-0.6,1.5-0.9c0.5-0.3,1-0.6,1.5-0.9c2.3-1,4.8-0.4,7.2,0.2
				c0.1,0,0.2,0.1,0.4,0.1c2.3,0.6,5.2,1,7.2-0.6L33,22l0.2,0.3l-0.1,0.1C30.9,24,28,23.5,25.6,23c-0.1,0-0.2-0.1-0.4-0.1
				c-2.4-0.6-4.9-1.2-7-0.2c-0.5,0.2-1,0.6-1.5,0.9c-0.5,0.3-1,0.6-1.5,0.9C14.7,24.7,14.2,24.8,13.6,24.8z"/>
			<path id="Shape_1_" class="st0" d="M17.4,31.2L0,22.2l17.4-7.8L35,22.2L17.4,31.2z M1.7,22.3l15.7,8.1l15.9-8.1l-15.9-7L1.7,22.3
				z"/>
			<path id="Shape_2_" class="st0" d="M17.5,0c-4.2,0-7.6,3.4-7.6,7.6c0,6.3,7.6,14.8,7.6,14.8s7.6-8.7,7.6-14.8
				C25.1,3.4,21.7,0,17.5,0z M17.5,11.5c-2.2,0-4-1.8-4-4s1.8-4,4-4s4,1.8,4,4C21.4,9.7,19.7,11.5,17.5,11.5z"/>
		</g>
	</g>
</g>
</svg>
