<?xml version="1.0" encoding="utf-8"?>
<!-- Generator: Adobe Illustrator 22.1.0, SVG Export Plug-In . SVG Version: 6.00 Build 0)  -->
<svg version="1.1" id="Layer_1" xmlns="http://www.w3.org/2000/svg" xmlns:xlink="http://www.w3.org/1999/xlink" x="0px" y="0px"
	 viewBox="0 0 30 34" style="enable-background:new 0 0 30 34;" xml:space="preserve">
<style type="text/css">
	.st0{fill:#FFFFFF;}
</style>
<title>Shape</title>
<desc>Created with Sketch.</desc>
<g id="Page-1">
	<g id="_x31_.2-Madrid-" transform="translate(-915.000000, -886.000000)">
		<path id="Shape" class="st0" d="M942.8,892.8l-10.7-6.2c-1.3-0.8-3-0.8-4.3,0l-10.7,6.2c-1.3,0.8-2.2,2.2-2.2,3.8v12.4
			c0,1.5,0.8,3,2.2,3.8l10.7,6.2c0.7,0.4,1.4,0.6,2.2,0.6s1.5-0.2,2.2-0.6l10.7-6.2c1.3-0.8,2.2-2.2,2.2-3.8v-12.4
			C945,895,944.1,893.5,942.8,892.8z M942.5,908.9c0,0.6-0.3,1.2-0.9,1.6l-10.7,6.2c-0.5,0.3-1.3,0.3-1.8,0l-10.7-6.2
			c-0.6-0.3-0.9-0.9-0.9-1.6v-12.4c0-0.6,0.3-1.2,0.9-1.6l10.7-6.2c0.3-0.2,0.6-0.2,0.9-0.2s0.6,0.1,0.9,0.2l10.7,6.2
			c0.6,0.3,0.9,0.9,0.9,1.6V908.9z M935.4,896.9l-12.4,9.6c-0.5,0.4-0.7,1.2-0.2,1.8c0.2,0.3,0.6,0.5,1,0.5c0.3,0,0.5-0.1,0.8-0.3
			l12.4-9.6c0.5-0.4,0.7-1.2,0.2-1.8C936.8,896.6,936,896.5,935.4,896.9z M927.3,901c0.9,0,1.8-0.4,2.5-1c0.7-0.7,1-1.5,1-2.5
			s-0.4-1.8-1-2.5c-0.7-0.7-1.5-1-2.5-1s-1.8,0.4-2.5,1s-1,1.5-1,2.5s0.4,1.8,1,2.5C925.5,900.7,926.4,901,927.3,901z M926.7,896.8
			c0.2-0.2,0.4-0.3,0.7-0.3s0.5,0.1,0.7,0.3c0.2,0.2,0.3,0.4,0.3,0.7c0,0.3-0.1,0.5-0.3,0.7c-0.4,0.4-1,0.4-1.4,0
			c-0.2-0.2-0.3-0.4-0.3-0.7C926.4,897.3,926.5,897,926.7,896.8z M932.6,904.4c-0.9,0-1.8,0.4-2.5,1c-0.7,0.7-1,1.5-1,2.5
			c0,0.9,0.4,1.8,1,2.5c0.7,0.7,1.5,1,2.5,1s1.8-0.4,2.5-1c0.7-0.7,1-1.5,1-2.5c0-0.9-0.4-1.8-1-2.5
			C934.4,904.8,933.5,904.4,932.6,904.4z M933.3,908.6c-0.4,0.4-1,0.4-1.4,0c-0.2-0.2-0.3-0.4-0.3-0.7c0-0.3,0.1-0.5,0.3-0.7
			c0.2-0.2,0.4-0.3,0.7-0.3s0.5,0.1,0.7,0.3c0.2,0.2,0.3,0.4,0.3,0.7C933.6,908.2,933.5,908.4,933.3,908.6z"/>
	</g>
</g>
</svg>
