<?xml version="1.0" encoding="utf-8"?>
<!-- Generator: Adobe Illustrator 22.1.0, SVG Export Plug-In . SVG Version: 6.00 Build 0)  -->
<svg version="1.1" id="Layer_1" xmlns="http://www.w3.org/2000/svg" xmlns:xlink="http://www.w3.org/1999/xlink" x="0px" y="0px"
	 viewBox="0 0 33 32" style="enable-background:new 0 0 33 32;" xml:space="preserve">
<style type="text/css">
	.st0{fill:#FFFFFF;stroke:#FFFFFF;stroke-width:1.45;}
</style>
<title>noun_581705_cc</title>
<desc>Created with Sketch.</desc>
<g id="Page-1">
	<g id="_x31_.2-Madrid-" transform="translate(-1135.000000, -890.000000)">
		<g id="noun_581705_cc" transform="translate(1136.000000, 891.000000)">
			<path id="Shape" class="st0" d="M0,6.9c0-2.1,1.7-3.8,3.9-3.8h13.2c0.2,0,0.3,0.1,0.3,0.3c0,0.2-0.1,0.3-0.3,0.3H3.9
				c-1.8,0-3.2,1.4-3.2,3.2v13c0,1.8,1.4,3.2,3.2,3.2h2.8c0.2,0,0.3,0.1,0.3,0.3V29l6-5.7c0.1-0.1,0.1-0.1,0.2-0.1h12.2
				c1.3,0,2.5-0.8,3-2c0.1-0.2,0.3-0.3,0.4-0.2c0.2,0.1,0.3,0.3,0.2,0.4c-0.6,1.5-2,2.4-3.6,2.4H13.3l-6.5,6.1C6.8,30,6.7,30,6.7,30
				c0,0-0.1,0-0.1,0c-0.1-0.1-0.2-0.2-0.2-0.3v-5.9H3.9C1.7,23.8,0,22.1,0,20V6.9z M31,9.4l-1.1,7c-0.2,1.6-1.3,2.6-3.2,2.6h-8.6
				c-1,0-1.8-0.5-2.2-1.2c-0.3,0.4-0.8,0.7-1.3,0.7h-1.8c-0.9,0-1.6-0.7-1.6-1.6V9c0-0.9,0.7-1.6,1.6-1.6h1.8c0.9,0,1.6,0.7,1.6,1.6
				v7.4c0,1.1,0.9,2,2,2h8.6c1,0,2.3-0.3,2.5-2l1.1-7c0.1-0.3,0-0.7-0.1-1c-0.3-0.7-1-1.2-1.8-1.2h-4.9c-0.2,0-0.3-0.1-0.3-0.3V3.2
				c0-1-0.3-1.8-0.8-2.2c-0.7-0.5-1.6-0.4-2-0.3V4c0,3.4-3.9,4.5-4,4.5c-0.2,0.1-0.4-0.1-0.4-0.2c0-0.2,0.1-0.3,0.2-0.4
				c0.1,0,3.5-1,3.5-3.9V0.5c0-0.1,0.1-0.3,0.2-0.3c0.1,0,1.6-0.5,2.8,0.3c0.7,0.5,1.1,1.4,1.1,2.7v3.3h4.5c1.1,0,2,0.6,2.4,1.6
				C31,8.5,31.1,8.9,31,9.4z M15.4,9c0-0.5-0.4-0.9-0.9-0.9h-1.8c-0.5,0-0.9,0.4-0.9,0.9v7.9c0,0.5,0.4,0.9,0.9,0.9h1.8
				c0.5,0,0.9-0.4,0.9-0.9V9z"/>
		</g>
	</g>
</g>
</svg>
