<?xml version="1.0" encoding="utf-8"?>
<!-- Generator: Adobe Illustrator 22.1.0, SVG Export Plug-In . SVG Version: 6.00 Build 0)  -->
<svg version="1.1" id="Layer_1" xmlns="http://www.w3.org/2000/svg" xmlns:xlink="http://www.w3.org/1999/xlink" x="0px" y="0px"
	 viewBox="0 0 1280 1024" style="enable-background:new 0 0 1280 1024;" xml:space="preserve">
<style type="text/css">
	.st0{fill:url(#SVGID_1_);}
	.st1{fill:#020303;}
	.st2{fill:url(#SVGID_2_);}
</style>
<g>
	<linearGradient id="SVGID_1_" gradientUnits="userSpaceOnUse" x1="642.9191" y1="570.6734" x2="745.9069" y2="570.6734">
		<stop  offset="0" style="stop-color:#AA1D42"/>
		<stop  offset="1" style="stop-color:#C62A5A"/>
	</linearGradient>
	<path class="st0" d="M681.7,577.1c-0.2,0-0.5,0-0.7,0c-2.2-0.1-4-1-5.2-2.4c-1-1.2-1.6-2.8-2.1-4.3c-0.8-2.1-1.5-4-3.3-4.7
		c-1.3-0.5-2.8-0.3-4.4,0.1l-22.8,5.2l-0.2-1l22.8-5.2c1.4-0.3,3.4-0.8,5-0.1c2.2,0.9,3,3.2,3.8,5.3c0.5,1.4,1.1,2.9,2,3.9
		c1.6,1.9,5.4,3,9.9,1c1.7-0.8,3.3-1.8,4.8-2.8c1.6-1,3.2-2.1,5-2.9c7.4-3.3,15.7-1.3,23.8,0.6c0.4,0.1,0.8,0.2,1.2,0.3
		c7.6,1.8,17.1,3.2,23.7-1.9l0.4-0.3l0.6,0.8l-0.4,0.3c-6.9,5.4-16.8,3.9-24.6,2.1c-0.4-0.1-0.8-0.2-1.2-0.3
		c-7.9-1.9-16-3.8-23.1-0.7c-1.7,0.8-3.3,1.8-4.8,2.8c-1.6,1-3.2,2.1-4.9,2.9C685.2,576.7,683.4,577.1,681.7,577.1z"/>
</g>
<g>
	<path class="st1" d="M694.1,598L637,568.7l57.1-25.5l57.6,25.5L694.1,598z M642.5,568.9l51.7,26.5l52.1-26.5l-52.1-23.1
		L642.5,568.9z"/>
</g>
<linearGradient id="SVGID_2_" gradientUnits="userSpaceOnUse" x1="694.3587" y1="569.1481" x2="694.3587" y2="443.8794">
	<stop  offset="0" style="stop-color:#AA1D42"/>
	<stop  offset="1" style="stop-color:#C62A5A"/>
</linearGradient>
<path class="st2" d="M694.4,495.7c-13.7,0-24.9,11.1-24.9,24.9c0,20.6,24.9,48.6,24.9,48.6s24.9-28.5,24.9-48.6
	C719.2,506.8,708.1,495.7,694.4,495.7z M694.4,533.4c-7.2,0-13-5.8-13-13c0-7.2,5.8-13,13-13c7.2,0,13,5.8,13,13
	C707.3,527.6,701.5,533.4,694.4,533.4z"/>
</svg>
